<?xml version="1.0" standalone="no"?>
<!DOCTYPE svg PUBLIC "-//W3C//DTD SVG 20010904//EN"
 "http://www.w3.org/TR/2001/REC-SVG-20010904/DTD/svg10.dtd">
<svg version="1.0" xmlns="http://www.w3.org/2000/svg"
 width="186.000000pt" height="93.000000pt" viewBox="0 0 186.000000 93.000000"
 preserveAspectRatio="xMidYMid meet">

<g transform="translate(0.000000,93.000000) scale(0.100000,-0.100000)"
fill="#000000" stroke="none">
<path d="M170 758 c0 -97 13 -154 43 -187 48 -52 134 -66 202 -31 21 11 41 18
43 15 9 -9 -9 -74 -26 -96 -28 -33 -107 -38 -167 -9 -25 12 -47 21 -49 19 -2
-2 -11 -18 -19 -36 l-16 -31 42 -20 c93 -43 224 -34 274 20 48 53 53 77 53
263 l0 175 -45 0 -45 0 0 -75 c0 -83 -17 -137 -48 -154 -37 -20 -91 -13 -117
14 -23 22 -25 32 -25 120 l0 95 -50 0 -50 0 0 -82z"/>
<path d="M650 630 l0 -210 50 0 50 0 0 90 0 90 29 0 c25 0 30 -5 35 -33 9 -48
68 -112 121 -132 68 -27 163 -17 217 21 62 43 88 94 88 174 0 80 -26 131 -88
174 -37 26 -54 31 -115 34 -109 5 -188 -39 -218 -123 -11 -29 -18 -35 -41 -35
l-28 0 0 80 0 80 -50 0 -50 0 0 -210z m426 125 c25 -10 40 -26 54 -57 25 -54
25 -82 0 -136 -29 -65 -98 -89 -161 -57 -89 47 -93 193 -6 245 38 24 66 25
113 5z"/>
<path d="M1332 821 c-29 -10 -55 -21 -59 -25 -4 -3 1 -22 10 -41 16 -35 18
-35 44 -21 16 7 43 17 61 21 l32 7 0 -171 0 -171 45 0 45 0 0 170 c0 105 4
170 10 170 5 0 32 -8 59 -19 l49 -18 15 33 c19 39 14 44 -56 68 -65 22 -187
20 -255 -3z"/>
<path d="M304 179 c-4 -7 0 -9 14 -5 22 7 62 -8 62 -24 0 -5 -15 -11 -32 -13
l-33 -4 33 -1 c17 -1 32 -6 32 -12 0 -16 -39 -32 -62 -24 -14 4 -18 2 -14 -5
10 -16 52 -13 70 5 20 20 20 58 0 78 -18 18 -60 21 -70 5z"/>
<path d="M420 133 c0 -29 5 -53 10 -53 6 0 10 17 10 39 0 41 20 67 45 57 10
-4 15 -19 15 -51 0 -25 5 -45 10 -45 6 0 10 17 10 39 0 41 20 67 45 57 10 -4
15 -19 15 -51 0 -25 5 -45 10 -45 13 0 13 66 0 91 -11 20 -54 26 -65 9 -4 -7
-11 -8 -18 -1 -7 5 -29 9 -49 8 l-38 -1 0 -53z"/>
<path d="M646 177 c-38 -28 -13 -97 34 -97 22 0 50 32 50 57 0 23 -29 53 -51
53 -9 0 -23 -6 -33 -13z m58 -13 c9 -8 16 -22 16 -29 0 -17 -27 -45 -44 -45
-32 0 -48 54 -24 78 16 16 33 15 52 -4z"/>
<path d="M810 135 c0 -30 5 -55 10 -55 6 0 10 23 10 50 0 49 1 50 30 50 29 0
30 -1 30 -50 0 -27 5 -50 10 -50 6 0 10 25 10 55 l0 55 -50 0 -50 0 0 -55z"/>
<path d="M965 176 c-22 -16 -36 -136 -16 -136 6 0 11 11 11 25 0 22 3 25 25
19 52 -13 86 54 47 89 -23 21 -42 21 -67 3z m59 -12 c9 -8 16 -22 16 -29 0
-17 -27 -45 -44 -45 -32 0 -48 54 -24 78 16 16 33 15 52 -4z"/>
<path d="M1087 172 c-22 -25 -21 -55 2 -76 26 -24 62 -17 80 15 13 24 13 29
-2 53 -21 31 -56 34 -80 8z m61 -4 c24 -24 8 -78 -24 -78 -17 0 -44 28 -44 45
0 17 27 45 44 45 6 0 17 -5 24 -12z"/>
<path d="M1217 172 c-22 -25 -21 -55 2 -76 22 -20 62 -18 69 4 4 13 3 13 -11
2 -19 -16 -53 -8 -61 15 -15 39 29 78 59 53 9 -8 15 -8 15 -2 0 10 -23 22 -44
22 -7 0 -20 -8 -29 -18z"/>
<path d="M1322 135 l1 -60 7 45 c4 25 4 52 -1 60 -5 9 -8 -8 -7 -45z"/>
<path d="M1344 178 c-5 -8 -2 -9 9 -5 33 12 47 -3 48 -52 l2 -46 7 43 c13 82
65 83 73 2 l4 -45 -1 49 c-1 58 -22 79 -57 58 -15 -10 -24 -11 -32 -3 -14 14
-44 14 -53 -1z"/>
<path d="M1537 172 c-22 -25 -21 -55 2 -76 26 -24 62 -17 80 15 13 24 13 29
-2 53 -21 31 -56 34 -80 8z m61 -4 c24 -24 8 -78 -24 -78 -17 0 -44 28 -44 45
0 17 27 45 44 45 6 0 17 -5 24 -12z"/>
<path d="M183 133 c9 -2 23 -2 30 0 6 3 -1 5 -18 5 -16 0 -22 -2 -12 -5z"/>
</g>
</svg>
