<?xml version="1.0" standalone="no"?>
<!DOCTYPE svg PUBLIC "-//W3C//DTD SVG 20010904//EN"
 "http://www.w3.org/TR/2001/REC-SVG-20010904/DTD/svg10.dtd">
<svg version="1.0" xmlns="http://www.w3.org/2000/svg"
 width="186.000000pt" height="93.000000pt" viewBox="0 0 322.000000 163.000000"
 preserveAspectRatio="xMidYMid meet">

<g transform="translate(0.000000,163.000000) scale(0.100000,-0.100000)"
fill="#000000" stroke="none">
<path d="M1693 1446 c-97 -32 -179 -111 -214 -207 l-22 -59 -43 0 -44 0 0 135
0 135 -75 0 -75 0 0 -335 0 -335 75 0 75 0 0 135 0 135 45 0 c40 0 45 -3 51
-27 18 -76 83 -161 155 -206 53 -32 139 -50 215 -44 129 10 226 71 285 179 32
60 34 68 34 163 0 89 -3 106 -28 156 -32 67 -100 132 -165 162 -59 26 -206 34
-269 13z m225 -148 c103 -69 114 -257 20 -345 -87 -81 -226 -64 -289 35 -70
111 -37 264 69 322 54 29 146 24 200 -12z"/>
<path d="M2358 1444 c-55 -13 -158 -59 -158 -70 0 -7 50 -104 54 -104 2 0 34
11 70 25 37 14 78 25 91 25 l25 0 0 -270 0 -270 75 0 75 0 0 270 0 270 26 0
c14 0 55 -12 90 -26 36 -14 68 -23 71 -21 3 3 16 29 29 57 l24 51 -53 24 c-28
13 -79 31 -112 40 -73 19 -229 19 -307 -1z"/>
<path d="M452 1293 c5 -179 22 -239 84 -293 82 -72 245 -79 331 -14 17 13 35
24 39 24 10 0 -5 -100 -21 -130 -26 -50 -61 -65 -150 -65 -70 0 -89 4 -143 31
l-63 31 -30 -51 c-16 -28 -29 -53 -29 -56 0 -9 65 -47 115 -66 38 -14 75 -19
155 -19 127 0 189 23 249 91 65 74 71 110 71 410 l0 264 -75 0 -75 0 0 -107
c-1 -171 -22 -227 -97 -259 -71 -30 -151 -5 -185 57 -15 28 -18 57 -18 171 l0
138 -81 0 -82 0 5 -157z"/>
<path d="M487 355 c-31 -18 -28 -42 3 -25 32 17 88 12 110 -10 31 -31 24 -40
-29 -40 -28 0 -53 -4 -56 -10 -4 -6 15 -10 49 -10 64 0 73 -15 30 -49 -29 -23
-64 -27 -95 -11 -27 15 -45 2 -22 -16 21 -16 96 -18 124 -4 29 16 52 68 45
105 -13 66 -98 104 -159 70z"/>
<path d="M707 363 c-4 -3 -7 -48 -7 -100 0 -76 3 -93 15 -93 12 0 15 14 15 63
0 78 17 107 65 107 48 0 65 -29 65 -107 0 -86 17 -80 22 8 4 78 19 99 68 99
44 0 60 -28 60 -103 0 -55 3 -67 16 -67 14 0 16 11 12 76 -3 69 -6 78 -32 101
-24 20 -37 24 -64 19 -19 -3 -42 -12 -51 -20 -14 -13 -19 -12 -40 5 -28 23
-56 24 -93 5 -24 -13 -28 -13 -28 0 0 15 -12 19 -23 7z"/>
<path d="M1145 358 c-94 -51 -61 -188 45 -188 107 0 139 140 43 189 -27 14
-62 14 -88 -1z m97 -35 c25 -23 24 -87 -2 -113 -26 -26 -74 -26 -100 0 -25 25
-27 86 -3 112 20 23 80 24 105 1z"/>
<path d="M1450 270 c0 -82 3 -100 15 -100 12 0 15 16 15 85 l0 85 60 0 60 0 0
-85 c0 -69 3 -85 15 -85 12 0 15 18 15 100 l0 100 -90 0 -90 0 0 -100z"/>
<path d="M1755 358 c-47 -25 -55 -48 -55 -155 0 -85 3 -103 15 -103 11 0 15
12 15 45 0 42 2 45 19 35 39 -20 91 -12 122 19 78 79 -19 213 -116 159z m99
-40 c22 -31 20 -84 -4 -108 -26 -26 -74 -26 -100 0 -25 25 -27 86 -3 112 24
27 87 24 107 -4z"/>
<path d="M1988 353 c-87 -55 -49 -183 55 -183 60 0 97 35 97 92 0 50 -13 74
-50 93 -37 19 -68 19 -102 -2z m107 -33 c27 -30 25 -88 -4 -111 -51 -41 -121
-9 -121 56 0 22 8 43 20 55 27 27 81 26 105 0z"/>
<path d="M2250 363 c-30 -12 -60 -47 -66 -78 -7 -37 16 -89 45 -105 46 -24
145 -2 127 29 -5 8 -13 7 -29 -4 -31 -22 -64 -18 -92 10 -66 65 13 159 97 114
25 -14 36 -3 17 17 -17 16 -75 27 -99 17z"/>
<path d="M2420 270 c0 -60 4 -100 10 -100 6 0 10 22 10 49 0 53 14 101 33 113
7 4 26 8 44 8 42 0 53 -21 53 -104 0 -52 3 -66 15 -66 12 0 15 14 15 68 0 79
15 102 68 102 41 0 52 -22 52 -104 0 -52 3 -66 15 -66 12 0 15 14 15 68 0 37
-6 78 -13 91 -22 44 -94 52 -131 15 -15 -14 -17 -14 -32 0 -23 24 -62 30 -92
15 -15 -7 -30 -15 -34 -17 -5 -2 -8 3 -8 12 0 9 -4 16 -10 16 -6 0 -10 -40
-10 -100z"/>
<path d="M2854 354 c-95 -46 -58 -184 49 -184 60 0 97 35 97 92 0 50 -13 74
-50 93 -36 19 -57 19 -96 -1z m101 -34 c27 -30 25 -88 -4 -111 -71 -58 -159
33 -105 109 20 30 83 31 109 2z"/>
<path d="M225 270 c-4 -6 13 -10 44 -10 28 0 51 5 51 10 0 6 -20 10 -44 10
-25 0 -48 -4 -51 -10z"/>
</g>
</svg>
